<?xml version="1.0" standalone="no"?>
<!DOCTYPE svg PUBLIC "-//W3C//DTD SVG 20010904//EN"
 "http://www.w3.org/TR/2001/REC-SVG-20010904/DTD/svg10.dtd">
<svg version="1.0" xmlns="http://www.w3.org/2000/svg"
 width="364.000000pt" height="430.000000pt" viewBox="0 0 364.000000 430.000000"
 preserveAspectRatio="xMidYMid meet">

<g transform="translate(0.000000,500.000000) scale(0.100000,-0.100000)"
fill="#ff0000" stroke="none">
<path d="M1666 4680 c-615 -78 -1097 -522 -1228 -1133 -31 -146 -31 -408 0
-554 27 -126 72 -253 126 -359 51 -102 1259 -2194 1266 -2194 9 0 1258 2173
1294 2250 44 98 82 220 103 334 26 136 23 389 -5 523 -121 569 -551 999 -1115
1114 -115 23 -333 33 -441 19z m275 -230 c467 -47 861 -359 1011 -800 42 -126
60 -239 60 -380 0 -324 -117 -606 -346 -836 -230 -229 -511 -346 -836 -346
-323 0 -608 118 -835 346 -207 207 -319 448 -345 741 -41 468 211 924 633
1145 162 85 312 124 528 138 15 1 73 -3 130 -8z"/>
<path d="M1416 3754 c-98 -31 -178 -102 -223 -199 -40 -89 -45 -214 -10 -313
48 -138 191 -320 376 -476 116 -98 251 -196 270 -196 20 0 161 101 268 192
190 160 339 350 382 486 33 100 27 219 -14 310 -105 233 -409 282 -602 99
l-33 -31 -32 31 c-105 99 -253 136 -382 97z"/>
</g>
</svg>
